Coordinates
version=1
nRows=10
nColumns=63
inDegrees=yes

Units are S.I. units (second, meters, Newtons, ...)
If the header above contains a line with 'inDegrees', this indicates whether rotational values are in degrees (yes) or radians (no).

endheader
time	pelvis_tilt	pelvis_list	pelvis_rotation	pelvis_tx	pelvis_ty	pelvis_tz	hip_flexion_r	hip_adduction_r	hip_rotation_r	knee_angle_r	knee_angle_r_beta	ankle_angle_r	subtalar_angle_r	mtp_angle_r	hip_flexion_l	hip_adduction_l	hip_rotation_l	knee_angle_l	knee_angle_l_beta	ankle_angle_l	subtalar_angle_l	mtp_angle_l	L5_S1_Flex_Ext	L5_S1_Lat_Bending	L5_S1_axial_rotation	L4_L5_Flex_Ext	L4_L5_Lat_Bending	L4_L5_axial_rotation	L3_L4_Flex_Ext	L3_L4_Lat_Bending	L3_L4_axial_rotation	L2_L3_Flex_Ext	L2_L3_Lat_Bending	L2_L3_axial_rotation	L1_L2_Flex_Ext	L1_L2_Lat_Bending	L1_L2_axial_rotation	L1_T12_Flex_Ext	L1_T12_Lat_Bending	L1_T12_axial_rotation	Abs_r3	Abs_r2	Abs_r1	Abs_t1	Abs_t2	neck_flexion	neck_bending	neck_rotation	arm_flex_r	arm_add_r	arm_rot_r	elbow_flex_r	pro_sup_r	wrist_flex_r	wrist_dev_r	arm_flex_l	arm_add_l	arm_rot_l	elbow_flex_l	pro_sup_l	wrist_flex_l	wrist_dev_l
      0.00000000	     -0.21935568	     -3.31116701	     91.28694449	      0.22123116	      0.61509409	      0.71025451	      8.89314949	     -0.72008313	    -13.96958540	     13.27365600	      0.23166900	     12.77545820	      6.19225008	      0.00000000	      8.53595478	      0.25562444	     -4.12571421	      9.32955098	      0.16283138	     11.91411787	     -7.90365078	      0.00000000	      0.24795780	      0.13639734	     -0.41156282	      0.46048243	      0.18140846	     -0.43728550	      0.40736987	      0.33163649	     -0.43728550	      0.28339097	      0.33163649	     -0.36011747	      0.23025361	      0.27814145	     -0.33439479	      0.14168309	      0.21127948	     -0.30867211	      1.77113777	      1.54295398	     -2.28898893	      0.00000000	      0.00000000	     27.12114699	      4.68886802	      5.85878691	     10.18444777	     -7.30901050	     35.84888700	     59.73087138	     81.51426861	      6.15845167	     27.34500771	     11.79653906	    -11.33527121	     37.92397030	     61.01144074	     88.10981376	      9.18453347	     27.24130364
      0.01694915	     -0.62641137	     -3.04858341	     91.62173389	      0.22100436	      0.61556579	      0.71017028	      8.42803890	     -1.12230566	    -13.65643913	     13.11223228	      0.22885163	     13.03427166	      5.67732504	      0.00000000	      8.30193163	      0.65629354	     -4.47153278	      9.39363009	      0.16394977	     12.30460469	     -6.98115118	      0.00000000	      0.22396855	      0.09063508	     -0.67069246	      0.41593199	      0.12054466	     -0.71261074	      0.36795792	      0.22037014	     -0.71261074	      0.25597365	      0.22037014	     -0.58685590	      0.20797719	      0.18482306	     -0.54493762	      0.12797563	      0.14039374	     -0.50301934	      1.59978493	      1.02528218	     -3.73019024	      0.00000000	      0.00000000	     26.81073571	      5.51804651	      7.13880834	     10.39403396	     -7.07735026	     37.30072148	     59.19162408	     73.95992575	      5.39468431	     28.60587594	     11.22337657	    -11.91066772	     36.61805208	     62.10907107	     88.16936231	      9.25045483	     28.38310406
      0.03389831	     -0.98512201	     -2.81352240	     91.72966570	      0.22094663	      0.61594806	      0.70996091	      7.99865187	     -1.48042198	    -13.40649286	     12.94517505	      0.22593593	     13.13279517	      5.46337330	      0.00000000	      8.08083652	      0.98691391	     -4.99106508	      9.50583265	      0.16590808	     12.62364848	     -6.03490390	      0.00000000	      0.20004388	      0.04944743	     -0.78609569	      0.37150149	      0.06576508	     -0.83522667	      0.32865209	      0.12022647	     -0.83522667	      0.22863015	      0.12022647	     -0.68783372	      0.18576074	      0.10083319	     -0.63870274	      0.11430507	      0.07659406	     -0.58957176	      1.42889342	      0.55935919	     -4.37202837	      0.00000000	      0.00000000	     26.49887992	      5.50690526	      7.45624042	     10.52844691	     -7.16128697	     38.81443687	     59.20618700	     66.93119370	      2.74791456	     29.78775869	     11.11636831	    -12.34589780	     36.18901331	     62.69566801	     88.35040825	     10.42037892	     29.05451248
      0.05084746	     -1.24911488	     -2.63492164	     91.75714203	      0.22093053	      0.61620620	      0.70962705	      7.69037619	     -1.75527825	    -13.26770271	     12.88350174	      0.22485952	     13.10476146	      5.29445419	      0.00000000	      7.85195351	      1.21191105	     -5.49515462	      9.51256328	      0.16602555	     12.91136321	     -4.91707563	      0.00000000	      0.18057962	      0.01878463	     -0.83968120	      0.33535441	      0.02498355	     -0.89216128	      0.29667426	      0.04567294	     -0.89216128	      0.20638445	      0.04567294	     -0.73472105	      0.16768624	      0.03830561	     -0.68224098	      0.10318319	      0.02909739	     -0.62976090	      1.28986217	      0.21249545	     -4.67005495	      0.00000000	      0.00000000	     26.06510286	      5.44205089	      7.67090520	     10.54602922	     -7.18997633	     39.38940420	     59.28925660	     65.40274852	      2.32381957	     30.59740369	     11.16081899	    -12.76409161	     36.47969315	     63.14506094	     88.51846944	     10.66648332	     29.36478145
      0.06779661	     -1.41535189	     -2.58775653	     91.93516829	      0.22054897	      0.61611898	      0.70941741	      7.52304650	     -2.00076067	    -13.70634874	     12.85746863	      0.22440516	     13.16143615	      5.55919439	      0.00000000	      7.77800594	      1.49720077	     -4.51276558	      9.47125768	      0.16530463	     12.78606872	     -5.80171157	      0.00000000	      0.17423731	     -0.00066929	     -0.89110881	      0.32357611	     -0.00089015	     -0.94680311	      0.28625448	     -0.00162731	     -0.94680311	      0.19913582	     -0.00162731	     -0.77972021	      0.16179677	     -0.00136481	     -0.72402591	      0.09955920	     -0.00103673	     -0.66833161	      1.24455970	     -0.00757113	     -4.95607986	      0.00000000	      0.00000000	     25.72282058	      5.34704504	      7.73669615	     10.56782854	     -7.22779735	     39.50905800	     59.41904223	     66.81057122	      3.17266816	     31.18818134	     11.26308336	    -12.97324000	     36.56859967	     63.39290649	     88.68704481	     12.43946881	     29.98867006
      0.08474576	     -1.59573235	     -2.53247442	     91.94015783	      0.22046286	      0.61606690	      0.70910066	      7.35994494	     -2.22288437	    -13.87250701	     12.79594195	      0.22333132	     13.15128829	      5.74403550	      0.00000000	      7.70294409	      1.72792929	     -4.15596120	      9.48236495	      0.16549849	     12.81178033	     -5.98777775	      0.00000000	      0.16583708	     -0.02399867	     -0.87358725	      0.30797604	     -0.03191823	     -0.92818645	      0.27245374	     -0.05835037	     -0.92818645	      0.18953520	     -0.05835037	     -0.76438884	      0.15399631	     -0.04893809	     -0.70978964	      0.09475931	     -0.03717394	     -0.65519043	      1.18455767	     -0.27147776	     -4.85863019	      0.00000000	      0.00000000	     25.33634160	      5.10281482	      7.54880563	     10.53566900	     -7.27813564	     39.41829560	     59.65144047	     68.68537378	      3.88041414	     31.84162456	     11.50191727	    -13.06832520	     36.85942593	     63.39171117	     88.83345521	     14.42532850	     30.52792163
      0.10169492	     -1.68631710	     -2.52341655	     92.03008778	      0.22020074	      0.61591130	      0.70879534	      7.28069202	     -2.34356822	    -13.94029045	     12.76989849	      0.22287677	     13.04933556	      5.68012794	      0.00000000	      7.61405997	      1.93999400	     -3.02875514	      9.28759468	      0.16209911	     12.77316972	     -6.95027471	      0.00000000	      0.16473159	     -0.03544628	     -0.86012551	      0.30592303	     -0.04714356	     -0.91388335	      0.27063752	     -0.08618409	     -0.91388335	      0.18827173	     -0.08618409	     -0.75260982	      0.15296975	     -0.07228206	     -0.69885197	      0.09412763	     -0.05490629	     -0.64509413	      1.17666125	     -0.40097544	     -4.78376003	      0.00000000	      0.00000000	     25.07034026	      4.81413450	      7.27600207	     10.36523914	     -7.19547828	     38.42653473	     59.86270547	     75.62173440	      7.52308708	     31.96432519	     11.80738529	    -13.15297093	     37.52996687	     63.37099377	     88.92441177	     15.54389726	     30.74193206
      0.11864407	     -1.76713672	     -2.50970045	     91.92679493	      0.22034952	      0.61577264	      0.70857946	      7.25742811	     -2.36156322	    -13.28507270	     12.73372431	      0.22224542	     12.93065422	      5.05636748	      0.00000000	      7.54991944	      2.01273923	     -3.13482118	      9.14321053	      0.15957913	     13.27237540	     -6.28252153	      0.00000000	      0.16224017	     -0.04536178	     -0.82097323	      0.30129623	     -0.06033116	     -0.87228405	      0.26654438	     -0.11029262	     -0.87228405	      0.18542429	     -0.11029262	     -0.71835157	      0.15065622	     -0.09250174	     -0.66704075	      0.09270403	     -0.07026539	     -0.61572992	      1.15886533	     -0.51314149	     -4.56600679	      0.00000000	      0.00000000	     24.84965781	      4.64541113	      7.21561091	     10.31828102	     -7.09726814	     37.72879961	     60.04266091	     80.74951605	     10.19145157	     32.02682117	     12.04633255	    -13.29280855	     38.20845942	     63.44995216	     88.99655825	     16.01389755	     30.64027651
      0.13559322	     -1.78907428	     -2.48149779	     91.97099273	      0.22029267	      0.61565831	      0.70850420	      7.20691445	     -2.36208990	    -13.10279262	     12.64797982	      0.22074889	     12.99862392	      5.03013908	      0.00000000	      7.49435038	      2.07895083	     -2.63926816	      8.98226025	      0.15677002	     13.67556876	     -6.34009492	      0.00000000	      0.15711858	     -0.04734313	     -0.83350327	      0.29178491	     -0.06296636	     -0.88559723	      0.25813011	     -0.11511009	     -0.88559723	      0.17957082	     -0.11511009	     -0.72931537	      0.14590031	     -0.09654211	     -0.67722141	      0.08977756	     -0.07333451	     -0.62512746	      1.12228229	     -0.53555497	     -4.63569516	      0.00000000	      0.00000000	     24.68879035	      4.52210774	      7.24786681	     10.44751373	     -7.11102542	     37.63813796	     60.13201517	     82.81261687	     11.56116754	     32.18932825	     12.10402372	    -13.29851974	     38.26456543	     63.52020520	     89.03998463	     16.91226941	     30.54034915
      0.15254237	     -1.70351427	     -2.38562351	     91.72833103	      0.22073837	      0.61571865	      0.70848285	      7.06694325	     -2.14830739	    -12.47913268	     12.35599379	      0.21565277	     13.14284306	      4.87995835	      0.00000000	      7.42366488	      1.87867748	     -3.70073018	      8.97287563	      0.15660622	     14.66739061	     -4.61987337	      0.00000000	      0.14417455	     -0.03790909	     -0.80528280	      0.26774655	     -0.05041909	     -0.85561298	      0.23686437	     -0.09217215	     -0.85561298	      0.16477709	     -0.09217215	     -0.70462245	      0.13388049	     -0.07730421	     -0.65429228	      0.08238134	     -0.05872118	     -0.60396210	      1.02982438	     -0.42883518	     -4.47874137	      0.00000000	      0.00000000	     24.56914346	      4.52379503	      7.25360060	     10.88209166	     -7.56225219	     38.92758308	     60.15573623	     79.95156475	     10.68404553	     32.16598716	     12.35919107	    -13.80397501	     39.48171287	     63.85573117	     89.11318483	     15.20530773	     28.59844770
